<svg xmlns="http://www.w3.org/2000/svg" width="104.732" height="91.382" viewBox="0 0 104.732 91.382">
  <g id="customer" transform="translate(0 -32.631)">
    <circle id="Elipse_1" data-name="Elipse 1" cx="17.796" cy="17.796" r="17.796" transform="translate(34.57 32.631)" fill="#0378a6"/>
    <circle id="Elipse_2" data-name="Elipse 2" cx="11.251" cy="11.251" r="11.251" transform="translate(77.117 45.722)" fill="#0378a6"/>
    <circle id="Elipse_3" data-name="Elipse 3" cx="11.251" cy="11.251" r="11.251" transform="translate(5.114 45.722)" fill="#0378a6"/>
    <path id="Trazado_3" data-name="Trazado 3" d="M27.449,243.7c-4.429-3.628-8.439-3.148-13.56-3.148A13.864,13.864,0,0,0,0,254.355v22.339a6.011,6.011,0,0,0,6.016,5.993c14.324,0,12.6.259,12.6-.618C18.614,266.24,16.74,254.631,27.449,243.7Z" transform="translate(0 -165.371)" fill="#0378a6"/>
    <path id="Trazado_4" data-name="Trazado 4" d="M152.837,240.091c-8.944-.746-16.718.009-23.424,5.543-11.221,8.988-9.062,21.09-9.062,35.9a7.176,7.176,0,0,0,7.164,7.163c43.178,0,44.9,1.393,47.457-4.277.84-1.918.61-1.308.61-19.652,0-14.57-12.616-24.673-22.745-24.673Z" transform="translate(-95.6 -164.831)" fill="#0378a6"/>
    <path id="Trazado_5" data-name="Trazado 5" d="M391.37,240.55c-5.149,0-9.137-.475-13.56,3.148,10.63,10.853,8.835,21.669,8.835,38.372,0,.883-1.432.618,12.384.618a6.225,6.225,0,0,0,6.231-6.206V254.356A13.864,13.864,0,0,0,391.37,240.55Z" transform="translate(-300.527 -165.372)" fill="#0378a6"/>
  </g>
</svg>
