<svg xmlns="http://www.w3.org/2000/svg" width="34.359" height="25.733" viewBox="0 0 34.359 25.733">
  <g id="list" transform="translate(0 -64.267)">
    <path id="Trazado_29" data-name="Trazado 29" d="M31.2,64.267H3.162a3.163,3.163,0,0,0,0,6.326H31.2a3.163,3.163,0,0,0,0-6.326Z" transform="translate(0)" fill="#fff"/>
    <path id="Trazado_30" data-name="Trazado 30" d="M31.2,208.867H3.162a3.163,3.163,0,0,0,0,6.326H31.2a3.163,3.163,0,0,0,0-6.326Z" transform="translate(0 -134.896)" fill="#fff"/>
    <path id="Trazado_31" data-name="Trazado 31" d="M31.2,353.467H3.162a3.163,3.163,0,0,0,0,6.326H31.2a3.163,3.163,0,0,0,0-6.326Z" transform="translate(0 -269.793)" fill="#fff"/>
  </g>
</svg>
