<svg xmlns="http://www.w3.org/2000/svg" width="88.652" height="91.382" viewBox="0 0 88.652 91.382">
  <g id="loan" transform="translate(-7.653)">
    <path id="Trazado_6" data-name="Trazado 6" d="M168.888,56.062a28.032,28.032,0,1,0-27.809-28.031A27.952,27.952,0,0,0,168.888,56.062Zm-8.936-19.284a2.675,2.675,0,0,1,3.7-.774c1.8,1.179,2.482,1.287,4.859,1.271a3.966,3.966,0,0,0,3.936-3.346,3,3,0,0,0-2.175-3.513,27.539,27.539,0,0,1-7.56-3.637,7.063,7.063,0,0,1-2.352-6.953,7.893,7.893,0,0,1,5.418-6.183l.075-.021V12.606a2.676,2.676,0,1,1,5.351,0v.846a10.062,10.062,0,0,1,3.6,1.65,2.676,2.676,0,1,1-3.2,4.286,4.73,4.73,0,0,0-4.281-.623,2.6,2.6,0,0,0-1.7,2.05,1.855,1.855,0,0,0,.4,1.752,23.867,23.867,0,0,0,6.041,2.8,8.346,8.346,0,0,1,5.669,9.446,9.482,9.482,0,0,1-2.92,5.386,9.06,9.06,0,0,1-3.6,2.039v1.215a2.676,2.676,0,0,1-5.351,0v-.948a11.243,11.243,0,0,1-5.131-2.025,2.676,2.676,0,0,1-.774-3.7Z" transform="translate(-109.626)" fill="#0378a6"/>
    <path id="Trazado_7" data-name="Trazado 7" d="M16.429,364.694h-6.1a2.676,2.676,0,0,0-2.676,2.676v20.975a2.676,2.676,0,0,0,2.676,2.676h6.1V364.694Z" transform="translate(0 -299.642)" fill="#0378a6"/>
    <path id="Trazado_8" data-name="Trazado 8" d="M160.593,324.561a12.876,12.876,0,0,0-18.19,0l-8.015,8.015-3.285,3.285a7.08,7.08,0,0,1-5.006,2.074H110.123a2.729,2.729,0,0,1-2.752-2.55,2.679,2.679,0,0,1,2.676-2.809h16.237a6.739,6.739,0,0,0,6.657-5.54,13.2,13.2,0,0,0,.2-2.273,2.681,2.681,0,0,0-2.679-2.682h-8.9c-2.908,0-5.7-1.319-8.656-2.716-3.1-1.465-6.307-2.979-10.056-3.229a28.328,28.328,0,0,0-9.768,1.065,8.662,8.662,0,0,0-6.194,7.555l-.035,0v26.309l46.1.013a11.789,11.789,0,0,0,8.391-3.476l19.252-19.252A2.679,2.679,0,0,0,160.593,324.561Z" transform="translate(-65.073 -259.695)" fill="#0378a6"/>
  </g>
</svg>
