<svg xmlns="http://www.w3.org/2000/svg" width="44.901" height="44.901" viewBox="0 0 44.901 44.901">
  <g id="magnifier" transform="translate(-0.001 0)">
    <g id="Grupo_135" data-name="Grupo 135" transform="translate(0.001 0)">
      <path id="Trazado_56" data-name="Trazado 56" d="M39.574,31.094A18.219,18.219,0,0,0,13.808,5.328a17.865,17.865,0,0,0-2.741,21.989.766.766,0,0,1-.106.913l-9.3,9.3c-1.85,1.85-2.291,4.437-.65,6.078l.282.282c1.641,1.641,4.228,1.2,6.078-.649l9.276-9.276a.778.778,0,0,1,.933-.125A17.865,17.865,0,0,0,39.574,31.094Zm-22.4-3.364a13.462,13.462,0,1,1,19.038,0A13.477,13.477,0,0,1,17.172,27.73Z" transform="translate(-0.001 0)"/>
      <g id="Grupo_134" data-name="Grupo 134" transform="translate(16.454 7.292)">
        <path id="Trazado_57" data-name="Trazado 57" d="M115.632,60.247a1.881,1.881,0,0,1-1.731-2.614,11.851,11.851,0,0,1,15.515-6.289,1.88,1.88,0,1,1-1.466,3.463A8.086,8.086,0,0,0,117.365,59.1,1.881,1.881,0,0,1,115.632,60.247Z" transform="translate(-113.752 -50.409)"/>
      </g>
    </g>
  </g>
</svg>
